<svg xmlns="http://www.w3.org/2000/svg" xmlns:xlink="http://www.w3.org/1999/xlink" width="500" zoomAndPan="magnify" viewBox="0 0 375 374.999991" height="500" preserveAspectRatio="xMidYMid meet" version="1.0"><defs><clipPath id="a8577aa962"><path d="M 18.28125 219 L 356 219 L 356 375 L 18.28125 375 Z M 18.28125 219 " clip-rule="nonzero"/></clipPath></defs><g clip-path="url(#a8577aa962)"><path fill="#008037" d="M 312.007812 315.050781 L 298.015625 315.050781 L 298.015625 329.144531 C 298.015625 334.804688 293.464844 339.359375 287.808594 339.359375 L 287.664062 339.359375 C 281.984375 339.359375 277.433594 334.804688 277.433594 329.144531 L 277.433594 315.359375 L 263.441406 315.359375 C 257.761719 315.359375 253.136719 310.78125 253.136719 305.050781 L 253.136719 304.90625 C 253.136719 299.25 257.761719 294.671875 263.441406 294.671875 L 277.121094 294.671875 L 277.121094 280.597656 C 277.121094 274.941406 281.699219 270.289062 287.351562 270.289062 L 287.710938 270.289062 C 293.367188 270.289062 297.945312 274.941406 297.945312 280.597656 L 297.945312 294.527344 L 312.007812 294.527344 C 314.8125 294.527344 317.351562 295.679688 319.222656 297.546875 C 321.089844 299.417969 322.242188 301.960938 322.242188 304.835938 C 322.242188 310.46875 317.664062 315.050781 312.007812 315.050781 Z M 355.117188 283.546875 C 353.941406 274.507812 349.460938 266.644531 343.183594 260.265625 C 339.109375 256.121094 334.292969 252.621094 329.117188 249.816406 C 312.753906 240.945312 294.613281 232.722656 276.019531 226.367188 C 274.773438 225.9375 273.550781 225.527344 272.304688 225.121094 C 270.84375 224.640625 269.359375 224.1875 267.898438 223.730469 C 263.511719 222.386719 259.078125 221.140625 254.71875 220.015625 C 253.375 222.050781 252.011719 224.089844 250.644531 226.105469 C 246.570312 232.121094 242.449219 237.945312 238.304688 243.652344 C 231.835938 252.546875 225.269531 261.058594 218.65625 269.472656 C 215.0625 274.054688 211.445312 278.609375 207.800781 283.164062 C 207.585938 283.449219 207.347656 283.738281 207.105469 284.027344 C 207.011719 284.171875 206.914062 284.289062 206.820312 284.410156 C 206.078125 285.34375 205.308594 286.257812 204.566406 287.191406 C 204.304688 285.152344 204.039062 283.066406 203.753906 281.003906 C 201.5 263.648438 199.632812 248.640625 199.441406 246.675781 L 199.605469 246.265625 C 200.351562 244.515625 201.070312 242.863281 201.8125 241.253906 L 201.90625 241.039062 C 201.980469 240.871094 202.050781 240.703125 202.125 240.535156 L 202.195312 240.441406 L 202.507812 239.625 C 202.867188 238.835938 203.203125 237.996094 203.5625 237.226562 C 203.753906 236.941406 203.921875 236.652344 204.0625 236.363281 C 204.136719 236.195312 204.207031 236.054688 204.304688 235.910156 L 204.640625 235.261719 C 205.308594 233.917969 206.078125 232.386719 206.078125 230.539062 C 206.078125 228.980469 205.527344 227.566406 205.070312 226.4375 L 204.613281 225.382812 C 204.613281 225.359375 204.589844 225.3125 204.566406 225.265625 C 204.542969 225.097656 204.496094 224.976562 204.375 224.738281 C 204.253906 224.402344 204.039062 223.945312 203.703125 223.347656 L 203.511719 223.058594 C 203.488281 223.011719 203.464844 222.964844 203.417969 222.914062 L 203.320312 222.722656 C 202.984375 222.148438 202.507812 221.621094 201.980469 221.261719 C 201.140625 220.6875 200.324219 220.519531 199.800781 220.398438 L 199.582031 220.375 L 198.601562 220.375 C 198.027344 220.085938 197.476562 220.085938 197.234375 220.085938 C 196.371094 220.039062 194.792969 220.015625 192.730469 219.992188 C 191.460938 219.992188 190.023438 219.992188 188.539062 219.992188 C 186.164062 219.992188 183.984375 219.992188 182.1875 219.992188 C 181.683594 219.992188 181.230469 219.992188 180.796875 219.992188 C 180.484375 219.992188 180.199219 219.992188 179.910156 220.015625 C 179.695312 220.015625 179.503906 220.015625 179.289062 220.015625 C 178.808594 220.015625 178.355469 220.039062 177.96875 220.039062 C 177.730469 220.039062 177.539062 220.0625 177.347656 220.0625 C 177.226562 220.085938 177.082031 220.085938 176.964844 220.085938 C 176.722656 220.085938 176.171875 220.085938 175.597656 220.375 L 174.617188 220.375 L 174.398438 220.398438 C 173.871094 220.519531 173.058594 220.6875 172.21875 221.261719 C 171.691406 221.621094 171.214844 222.148438 170.878906 222.722656 L 170.78125 222.914062 C 170.734375 222.964844 170.710938 223.011719 170.6875 223.058594 L 170.496094 223.347656 C 170.160156 223.945312 169.941406 224.402344 169.824219 224.738281 C 169.703125 224.976562 169.65625 225.097656 169.632812 225.265625 C 169.609375 225.3125 169.582031 225.359375 169.582031 225.382812 L 169.128906 226.4375 C 168.671875 227.566406 168.121094 228.980469 168.121094 230.539062 C 168.121094 232.386719 168.890625 233.917969 169.558594 235.261719 L 169.894531 235.910156 C 169.992188 236.054688 170.0625 236.195312 170.136719 236.363281 C 170.277344 236.652344 170.445312 236.941406 170.636719 237.226562 C 170.996094 237.996094 171.332031 238.835938 171.691406 239.625 L 172.003906 240.441406 L 172.074219 240.535156 C 172.148438 240.703125 172.21875 240.871094 172.292969 241.039062 L 172.386719 241.253906 C 173.128906 242.863281 173.847656 244.515625 174.589844 246.265625 L 174.757812 246.675781 C 174.566406 248.640625 172.699219 263.648438 170.445312 281.003906 C 170.160156 283.066406 169.894531 285.152344 169.632812 287.191406 C 168.890625 286.257812 168.121094 285.34375 167.378906 284.410156 C 163.425781 279.445312 159.472656 274.484375 155.542969 269.472656 C 148.929688 261.058594 142.363281 252.546875 135.894531 243.652344 C 130.382812 236.027344 124.871094 228.214844 119.480469 220.015625 C 113.660156 221.523438 107.738281 223.226562 101.917969 225.121094 C 82.03125 231.640625 62.550781 240.367188 45.082031 249.816406 C 39.929688 252.621094 35.089844 256.121094 31.015625 260.265625 C 24.738281 266.644531 20.257812 274.507812 19.082031 283.546875 C 18.914062 285.128906 18.773438 286.710938 18.773438 288.292969 L 18.773438 341.707031 C 21.933594 374.148438 43.308594 374.554688 44.363281 374.554688 L 329.910156 374.554688 C 329.980469 374.554688 330.171875 374.554688 330.4375 374.53125 C 330.507812 374.507812 330.578125 374.507812 330.652344 374.507812 C 330.84375 374.507812 331.105469 374.457031 331.417969 374.433594 C 333.765625 374.148438 338.367188 373.089844 342.945312 369.472656 C 343.496094 369.015625 344.046875 368.535156 344.597656 368.03125 C 344.789062 367.863281 344.957031 367.699219 345.148438 367.503906 C 346.945312 365.683594 348.695312 363.40625 350.25 360.527344 C 350.5625 359.953125 350.851562 359.355469 351.136719 358.730469 C 351.425781 358.109375 351.714844 357.460938 352 356.789062 C 353.605469 352.761719 354.828125 347.796875 355.425781 341.707031 L 355.425781 288.292969 C 355.425781 286.710938 355.285156 285.128906 355.117188 283.546875 " fill-opacity="1" fill-rule="nonzero"/></g><path fill="#008037" d="M 226.203125 64.730469 C 226.203125 70.75 221.316406 75.6875 215.253906 75.6875 C 209.214844 75.6875 204.28125 70.75 204.28125 64.730469 C 204.28125 58.691406 209.214844 53.75 215.253906 53.75 C 221.316406 53.75 226.203125 58.691406 226.203125 64.730469 " fill-opacity="1" fill-rule="nonzero"/><path fill="#008037" d="M 241.683594 74.441406 C 237.730469 85.230469 227.355469 92.902344 215.253906 92.902344 C 203.152344 92.902344 192.777344 85.230469 188.824219 74.441406 C 187.699219 71.394531 187.097656 68.136719 187.097656 64.730469 C 187.097656 61.304688 187.699219 58.042969 188.824219 55.023438 C 192.777344 44.234375 203.152344 36.539062 215.253906 36.539062 C 227.355469 36.539062 237.730469 44.234375 241.683594 55.023438 C 242.808594 58.042969 243.410156 61.304688 243.410156 64.730469 C 243.410156 68.136719 242.808594 71.394531 241.683594 74.441406 Z M 255.941406 84.292969 C 255.941406 84.292969 255.941406 84.292969 255.941406 83.71875 L 255.941406 81.34375 C 255.941406 78.972656 256.515625 76.621094 257.113281 74.847656 C 257.164062 74.703125 257.210938 74.5625 257.210938 74.441406 L 249.832031 74.441406 C 250.691406 71.371094 251.148438 68.085938 251.148438 64.730469 C 251.148438 61.351562 250.691406 58.089844 249.832031 55.023438 L 260.085938 55.023438 C 260.347656 34.164062 249.757812 16.855469 231.140625 8.703125 C 229.390625 7.503906 227.019531 6.929688 225.246094 6.328125 C 214.03125 2.183594 201.644531 -0.167969 189.230469 -0.167969 L 180.964844 -0.167969 C 173.296875 0.429688 163.257812 1.03125 154.390625 5.15625 C 153.21875 5.753906 152.644531 6.328125 151.445312 6.929688 C 147.921875 9.277344 144.976562 12.226562 142.601562 15.800781 C 142.027344 16.375 142.027344 16.972656 141.40625 17.550781 C 140.230469 19.324219 140.230469 19.921875 139.058594 20.523438 C 136.683594 22.273438 135.511719 23.472656 133.164062 24.046875 C 129.015625 25.84375 126.070312 28.195312 124.296875 31.742188 C 121.351562 36.464844 120.175781 42.9375 119.578125 50.035156 C 119.433594 51.738281 119.386719 53.367188 119.359375 55.023438 L 180.703125 55.023438 C 179.816406 58.089844 179.335938 61.351562 179.335938 64.730469 C 179.335938 68.085938 179.816406 71.371094 180.703125 74.441406 L 120.488281 74.441406 C 120.703125 75.808594 121.015625 77.101562 121.351562 78.398438 L 121.351562 78.972656 C 121.949219 80.746094 121.949219 82.542969 121.949219 83.71875 C 121.949219 83.71875 121.949219 83.71875 121.351562 83.71875 C 114.28125 85.492188 110.136719 93.164062 110.710938 100.261719 L 110.710938 105.582031 C 110.710938 107.933594 111.335938 110.28125 111.335938 112.632812 C 111.335938 113.832031 111.910156 115.003906 111.910156 116.203125 C 113.082031 126.824219 118.378906 135.097656 126.070312 139.242188 C 126.070312 139.242188 126.070312 139.242188 126.667969 139.820312 C 131.367188 158.710938 141.40625 173.480469 155.589844 182.949219 C 157.363281 184.125 159.710938 185.300781 161.484375 186.472656 C 164.433594 188.246094 167.378906 189.421875 170.949219 190.621094 L 171.523438 190.621094 C 174.472656 191.796875 176.84375 192.394531 179.792969 192.996094 C 182.140625 193.570312 184.511719 193.570312 186.882812 193.570312 L 188.058594 193.570312 C 190.40625 193.570312 192.777344 193.570312 195.125 192.996094 C 198.074219 192.394531 200.445312 191.796875 203.394531 190.621094 L 203.992188 190.621094 C 207.539062 189.421875 211.0625 187.671875 214.03125 186.472656 C 215.78125 185.300781 218.152344 184.125 219.925781 182.949219 C 227.617188 177.628906 234.085938 170.53125 239.429688 162.859375 C 241.753906 159.335938 243.550781 155.1875 245.902344 150.441406 C 246.5 148.667969 247.097656 146.914062 247.671875 145.140625 C 248.273438 143.367188 248.847656 141.59375 249.445312 140.417969 C 250.621094 139.242188 251.792969 138.046875 252.992188 136.871094 C 253.566406 136.296875 254.765625 135.671875 255.363281 134.496094 C 261.835938 128.597656 263.03125 121.527344 263.609375 116.203125 C 263.609375 115.003906 263.609375 114.429688 264.207031 113.253906 L 264.207031 112.632812 C 264.78125 110.28125 264.78125 108.53125 264.78125 106.160156 C 265.980469 104.960938 265.980469 102.609375 265.980469 100.835938 C 266.554688 94.339844 262.433594 86.667969 255.941406 84.292969 " fill-opacity="1" fill-rule="nonzero"/></svg>